<svg preserveAspectRatio="none" width="100%" height="100%" overflow="visible" style="display: block;" viewBox="0 0 38 37.9021" fill="none" xmlns="http://www.w3.org/2000/svg">
<path id="Union" d="M28.5237 0C33.7573 -2.2875e-07 38 4.24235 38 9.47554C38 14.7075 33.7593 18.9491 28.5274 18.9511C33.7593 18.9531 38 23.1946 38 28.4265C38 33.6597 33.7573 37.9021 28.5237 37.9021C23.2901 37.902 19.0473 33.6597 19.0473 28.4265C19.0473 28.8828 19.015 29.3316 18.9527 29.7707V37.9021H0V18.9511H9.57112C4.3375 18.9511 0.0947969 14.7087 0.0947891 9.47554C0.0947887 4.24235 4.3375 4.14188e-07 9.57112 0C14.8047 2.11634e-05 19.0473 4.24237 19.0473 9.47554C19.0473 4.24236 23.2901 1.39519e-05 28.5237 0Z" fill="var(--fill-0, #F9F9FB)"/>
</svg>
