<svg width="30" height="30" viewBox="0 0 30 30" fill="none" xmlns="http://www.w3.org/2000/svg">
<g clip-path="url(#clip0_678_2996)">
<path d="M25.3063 18.4374C26.4751 19.2049 26.4213 20.9836 25.1451 21.6574L16.1688 26.4024C15.8087 26.5928 15.4075 26.6924 15.0001 26.6924C14.5927 26.6924 14.1915 26.5928 13.8313 26.4024L4.85509 21.6574C3.58009 20.9824 3.52509 19.2049 4.69384 18.4374L4.77259 18.4874L13.8313 23.2774C14.1915 23.4678 14.5927 23.5674 15.0001 23.5674C15.4075 23.5674 15.8087 23.4678 16.1688 23.2774L25.1451 18.5324C25.2007 18.5033 25.2537 18.4716 25.3063 18.4374ZM25.3063 13.4374C25.5644 13.6083 25.7762 13.8406 25.9227 14.1133C26.0692 14.3861 26.1458 14.6909 26.1458 15.0005C26.1458 15.3101 26.0692 15.6149 25.9227 15.8876C25.7762 16.1604 25.5644 16.3926 25.3063 16.5636L25.1451 16.6574L16.1688 21.4024C15.8424 21.575 15.4817 21.6732 15.1128 21.6898C14.7438 21.7065 14.3758 21.6412 14.0351 21.4986L13.8326 21.4024L4.85509 16.6574C3.58009 15.9824 3.52509 14.2049 4.69384 13.4374L4.77259 13.4874L13.8313 18.2774C14.158 18.4502 14.5189 18.5485 14.888 18.5651C15.2572 18.5818 15.6255 18.5164 15.9663 18.3736L16.1688 18.2774L25.1451 13.5324C25.2007 13.5033 25.2537 13.4716 25.3063 13.4374ZM16.1688 3.59736L25.1451 8.34236C26.4776 9.04611 26.4776 10.9549 25.1451 11.6574L16.1688 16.4024C15.8087 16.5928 15.4075 16.6924 15.0001 16.6924C14.5927 16.6924 14.1915 16.5928 13.8313 16.4024L4.85509 11.6586C3.52259 10.9549 3.52259 9.04736 4.85509 8.34361L13.8313 3.59861C14.1915 3.40815 14.5927 3.30859 15.0001 3.30859C15.4075 3.30859 15.8087 3.4069 16.1688 3.59736Z" fill="#B1B1B1"/>
</g>
<defs>
<clipPath id="clip0_678_2996">
<rect width="30" height="30" fill="white"/>
</clipPath>
</defs>
</svg>
