<svg width="30" height="30" viewBox="0 0 30 30" fill="none" xmlns="http://www.w3.org/2000/svg">
<path d="M18.75 27.5811V21.3311C18.75 20.3366 18.3549 19.3827 17.6517 18.6795C16.9484 17.9762 15.9946 17.5811 15 17.5811C14.0054 17.5811 13.0516 17.9762 12.3483 18.6795C11.6451 19.3827 11.25 20.3366 11.25 21.3311V27.5811H5C4.33696 27.5811 3.70107 27.3177 3.23223 26.8489C2.76339 26.38 2.5 25.7442 2.5 25.0811V11.4961C2.5 11.0644 2.61179 10.64 2.82449 10.2644C3.03719 9.88868 3.34356 9.57449 3.71375 9.35237L13.7137 3.35237C14.1023 3.11924 14.5469 2.99609 15 2.99609C15.4531 2.99609 15.8977 3.11924 16.2863 3.35237L26.2862 9.35237C26.6564 9.57449 26.9628 9.88868 27.1755 10.2644C27.3882 10.64 27.5 11.0644 27.5 11.4961V25.0811C27.5 25.7442 27.2366 26.38 26.7678 26.8489C26.2989 27.3177 25.663 27.5811 25 27.5811H18.75Z" fill="#4283F3"/>
</svg>
