<svg width="25" height="21" viewBox="0 0 25 21" fill="none" xmlns="http://www.w3.org/2000/svg">
<g clip-path="url(#clip0_282_1999)">
<path d="M20.7402 13.5734C22.9076 14.1354 24.9678 12.2887 24.6757 10.0465C24.487 8.59122 23.9705 7.17206 23.1957 5.92953C21.7951 3.68335 19.5979 2.00123 17.1643 1.00159C14.677 -0.0181259 11.858 -0.347325 9.28533 0.427497C5.75708 1.48936 2.96388 4.69905 2.33412 8.3644C1.70436 12.0297 3.24201 15.9821 6.15043 18.2665C8.30592 19.9586 11.1389 20.6893 13.8446 20.3741C15.5233 20.1774 16.763 18.7181 16.6954 17.0119C16.5941 14.5148 15.9524 12.0157 14.6592 9.93612C16.0577 11.0682 17.802 12.2947 19.4151 13.0836C19.8522 13.2964 20.2932 13.4589 20.7382 13.5754L20.7402 13.5734Z" fill="#F2A65E"/>
<g opacity="0.35" style="mix-blend-mode:multiply">
<path d="M19.838 13.2701C19.9096 13.3002 19.9791 13.3283 20.0506 13.3544C20.0923 13.3704 20.134 13.3845 20.1777 13.3985C20.2413 13.4206 20.3069 13.4447 20.3704 13.4648C20.4161 13.4788 20.4618 13.4929 20.5055 13.5049C20.5671 13.523 20.6287 13.541 20.6923 13.5591C20.73 13.5691 20.7678 13.5772 20.8055 13.5872C21.6439 13.7859 22.4604 13.6274 23.1299 13.2259C21.4989 12.9509 19.9235 12.2564 18.5229 11.3451C16.4866 10.0202 14.7662 8.26383 13.0577 6.52751C12.5412 6.0036 11.9054 5.43754 11.1823 5.54593C10.2446 5.68845 9.84133 6.937 10.1671 7.83627C10.4929 8.73555 11.2757 9.36785 11.967 10.0222C14.2576 12.1841 15.8489 15.0726 16.5323 18.1599C16.6455 17.8146 16.7011 17.4453 16.6932 17.0639C16.6713 16.4958 16.6237 15.9277 16.5462 15.3637C16.5462 15.3577 16.5462 15.3516 16.5442 15.3456C16.4647 14.7775 16.3555 14.2135 16.2144 13.6595C16.2085 13.6374 16.2025 13.6133 16.1965 13.5912C16.1568 13.4387 16.1151 13.2881 16.0714 13.1376C16.0595 13.0994 16.0495 13.0593 16.0376 13.0212C15.9939 12.8786 15.9482 12.7381 15.9025 12.5956C15.8906 12.5635 15.8807 12.5294 15.8688 12.4972C15.7515 12.156 15.6204 11.8208 15.4774 11.4936C15.4575 11.4474 15.4357 11.4033 15.4158 11.3571C15.3641 11.2407 15.3105 11.1263 15.2549 11.0118C15.2291 10.9576 15.2032 10.9054 15.1754 10.8533C15.1198 10.7429 15.0622 10.6325 15.0026 10.5241C14.9768 10.4759 14.9509 10.4297 14.9251 10.3815C14.8397 10.229 14.7503 10.0784 14.6589 9.9299C15.1834 10.3554 15.7575 10.793 16.3535 11.2146C17.3468 11.9191 18.4077 12.5836 19.4149 13.0754C19.5202 13.1275 19.6255 13.1757 19.7308 13.2199C19.7665 13.2359 19.8003 13.248 19.836 13.262L19.838 13.2701Z" fill="#F2A65E"/>
</g>
<g opacity="0.35" style="mix-blend-mode:multiply">
<path d="M19.9695 13.3225C20.1244 13.3827 20.2814 13.4389 20.4383 13.4871C20.4383 13.4871 20.4423 13.4871 20.4443 13.4871C20.5952 13.5332 20.7482 13.5714 20.8992 13.6075C21.0283 13.6336 21.1575 13.6517 21.2866 13.6617C20.2158 13.3526 19.1907 12.8588 18.247 12.2586C16.6359 11.2308 15.2393 9.89999 13.8864 8.54707C13.6897 8.35035 13.4831 8.14561 13.2189 8.05728C12.9547 7.96896 12.6169 8.0352 12.4838 8.2821C12.319 8.58521 12.5355 8.95054 12.756 9.2155C13.7394 10.3858 15.0486 11.3071 15.726 12.6801C16.3081 13.8564 16.3518 15.2194 16.4472 16.5301C16.4809 16.9918 16.5266 17.4595 16.6041 17.9192C16.6657 17.6643 16.6955 17.3973 16.6935 17.1243C16.6577 16.0685 16.5286 15.0086 16.2922 13.9809C16.2922 13.9768 16.2902 13.9708 16.2882 13.9668C16.2485 13.7942 16.2048 13.6215 16.1591 13.4509C16.1591 13.4449 16.1551 13.4389 16.1551 13.4329C16.0161 12.915 15.8472 12.4091 15.6505 11.9133C15.6346 11.8732 15.6168 11.833 15.6009 11.7929C15.5532 11.6765 15.5035 11.56 15.4538 11.4456C15.432 11.3934 15.4082 11.3432 15.3843 11.2911C15.3366 11.1867 15.287 11.0843 15.2373 10.9799C15.2115 10.9257 15.1857 10.8735 15.1578 10.8213C15.1042 10.717 15.0486 10.6126 14.993 10.5082C14.9671 10.462 14.9433 10.4159 14.9175 10.3697C14.834 10.2232 14.7486 10.0766 14.6592 9.93412C15.1837 10.3597 15.7578 10.7973 16.3538 11.2188C17.3471 11.9234 18.408 12.5878 19.4152 13.0796C19.5682 13.1538 19.7211 13.2201 19.8741 13.2823C19.9059 13.2944 19.9377 13.3084 19.9675 13.3204L19.9695 13.3225Z" fill="#F2A65E"/>
</g>
<g opacity="0.14" style="mix-blend-mode:screen">
<path d="M12.3787 13.7601C11.1708 13.0776 9.88946 12.4674 8.91006 11.4777C8.20679 10.7652 7.581 9.81168 6.59365 9.66314C5.91025 9.56077 5.21096 9.90803 4.7739 10.45C4.33883 10.99 4.14215 11.6965 4.10639 12.3931C4.03289 13.8263 4.60901 15.2495 5.52286 16.3495C6.43671 17.4495 7.66842 18.2464 8.97562 18.8084C10.2053 19.3384 11.592 19.6736 12.8774 19.3063C14.0117 18.9831 15.1799 17.8349 15.2355 16.5763C15.2911 15.3137 13.2906 14.2779 12.3747 13.7601H12.3787Z" fill="#F2A65E"/>
</g>
<g opacity="0.14" style="mix-blend-mode:screen">
<path d="M4.91879 7.97092C5.23268 8.50687 5.89621 8.77384 6.50809 8.71161C7.12196 8.64939 7.67821 8.29811 8.10335 7.84646C8.38943 7.54135 8.62981 7.17401 8.70927 6.76252C8.87615 5.89737 8.22255 4.97802 7.36631 4.8094C5.94588 4.53039 4.09235 6.56179 4.91879 7.97292V7.97092Z" fill="#F2A65E"/>
</g>
<g opacity="0.14" style="mix-blend-mode:screen">
<path d="M20.512 10.8814C20.8894 11.0741 21.2828 11.2508 21.7039 11.299C22.1231 11.3451 22.5781 11.2448 22.88 10.9477C23.2555 10.5763 23.3211 9.9922 23.3091 9.46026C23.2654 7.7681 22.6218 6.09802 21.5212 4.82137C20.4206 3.54472 18.873 2.67154 17.2201 2.39654C15.3944 2.09143 13.9621 3.25366 14.7289 5.1887C14.9752 5.80696 15.4977 6.367 15.8831 6.89893C16.4493 7.67978 17.0989 8.39839 17.8181 9.03672C18.6346 9.76136 19.5405 10.3856 20.51 10.8834L20.512 10.8814Z" fill="#F2A65E"/>
</g>
<path d="M11.4688 0.515805C11.6893 0.499746 11.9873 0.553944 12.0072 0.776755C12.0251 0.98953 11.7688 1.10194 11.5622 1.14811C10.5212 1.38296 9.4782 1.63187 8.50078 2.06545C7.52534 2.49702 6.61149 3.12531 5.98372 3.99648C5.78307 4.2755 5.60825 4.58061 5.34403 4.7994C5.21092 4.9078 4.75201 5.17878 4.58911 5.00013C4.44408 4.84356 4.72618 4.51838 4.80962 4.39192C5.1553 3.86801 5.57646 3.38626 6.02941 2.95469C6.96511 2.06545 8.09153 1.37895 9.30735 0.95942C10.0047 0.718543 10.7337 0.565988 11.4688 0.513798V0.515805Z" fill="#2E2E2E"/>
<path d="M15.0267 1.21217C15.0883 1.20013 15.1518 1.18608 15.2015 1.14593C15.2512 1.10578 15.279 1.03352 15.2492 0.977317C15.2273 0.937171 15.1836 0.91509 15.1439 0.897024C14.5837 0.650125 13.6738 0.357058 13.0579 0.52768C12.8811 0.575855 12.6884 0.806696 12.8295 0.987353C12.9864 1.18808 13.5606 1.22422 13.793 1.25232C14.2042 1.3025 14.6214 1.28845 15.0267 1.21016V1.21217Z" fill="#2E2E2E"/>
<path d="M13.9282 14.2035C14.0196 14.3038 14.1209 14.4082 14.252 14.4423C14.3831 14.4744 14.55 14.3962 14.5599 14.2597C14.5659 14.1814 14.5202 14.1111 14.4765 14.0469C13.4534 12.5354 12.321 11.1022 11.0873 9.75927C10.9224 9.57861 10.7456 9.39394 10.5152 9.30963C10.0066 9.12295 9.63509 9.59668 9.98076 10.0323C10.2927 10.4257 10.7655 10.771 11.1151 11.1503C12.0528 12.168 12.9905 13.1857 13.9282 14.2035Z" fill="#2E2E2E"/>
<path d="M8.89992 7.28643C8.90588 7.13789 8.92972 6.98333 9.00918 6.85887C9.08865 6.73241 9.23566 6.64208 9.38068 6.67019C9.50186 6.69427 9.59722 6.79464 9.64292 6.90906C9.69059 7.02347 9.69457 7.14993 9.69059 7.27439C9.68066 7.54337 9.62702 7.81235 9.67271 8.07731C9.69258 8.19574 9.7343 8.31016 9.74026 8.4306C9.7641 8.8441 9.39657 8.84611 9.20784 8.58516C8.95951 8.24191 8.88204 7.69994 8.89992 7.28643Z" fill="#2E2E2E"/>
<path d="M14.5163 9.16953L14.0375 8.84033C12.2873 9.20968 10.7556 10.2595 9.36893 11.3976C7.98227 12.5378 6.67507 13.7964 5.13146 14.7097C3.58785 15.621 1.73035 16.165 0 15.7114L3.58586 18.1823C5.31621 18.636 7.17371 18.094 8.71732 17.1807C10.2609 16.2694 11.5681 15.0088 12.9548 13.8686C14.1984 12.8469 15.5612 11.8995 17.091 11.4478C16.1831 10.7533 15.3387 9.97446 14.5163 9.17154V9.16953Z" fill="white"/>
<g opacity="0.35" style="mix-blend-mode:multiply">
<path d="M14.0378 8.84033C13.9365 8.86241 13.8352 8.8865 13.7339 8.9126C14.4471 9.90621 14.9874 11.0283 15.3272 12.2066C15.8914 11.8914 16.4774 11.6285 17.0913 11.4478C16.1834 10.7533 15.3391 9.97446 14.5166 9.17154L14.0378 8.84234V8.84033Z" fill="#F2A65E"/>
</g>
</g>
<defs>
<clipPath id="clip0_282_1999">
<rect width="24.7037" height="20.4444" fill="white"/>
</clipPath>
</defs>
</svg>
