<svg width="50" height="50" viewBox="0 0 50 50" fill="none" xmlns="http://www.w3.org/2000/svg">
<rect width="50" height="50" rx="20" fill="#FFF9EC"/>
<path fill-rule="evenodd" clip-rule="evenodd" d="M25 13.8022C18.8157 13.8022 13.8021 18.8158 13.8021 25.0002C13.8021 26.9335 14.2927 28.7554 15.1563 30.3439L14.3365 34.7533C14.3134 34.8779 14.321 35.0062 14.3586 35.1273C14.3962 35.2483 14.4627 35.3583 14.5523 35.4479C14.6419 35.5375 14.7519 35.604 14.8729 35.6416C14.994 35.6792 15.1223 35.6868 15.2469 35.6637L19.6563 34.8429C21.296 35.7349 23.1334 36.2009 25 36.1981C31.1844 36.1981 36.198 31.1845 36.198 25.0002C36.198 18.8158 31.1844 13.8022 25 13.8022ZM30.2084 23.6981C29.863 23.6981 29.5318 23.8353 29.2877 24.0795C29.0435 24.3236 28.9063 24.6548 28.9063 25.0002C28.9063 25.3455 29.0435 25.6767 29.2877 25.9209C29.5318 26.1651 29.863 26.3022 30.2084 26.3022C30.5537 26.3022 30.8849 26.1651 31.1291 25.9209C31.3733 25.6767 31.5105 25.3455 31.5105 25.0002C31.5105 24.6548 31.3733 24.3236 31.1291 24.0795C30.8849 23.8353 30.5537 23.6981 30.2084 23.6981ZM23.698 25.0002C23.698 24.6548 23.8351 24.3236 24.0793 24.0795C24.3235 23.8353 24.6547 23.6981 25 23.6981C25.3454 23.6981 25.6766 23.8353 25.9208 24.0795C26.1649 24.3236 26.3021 24.6548 26.3021 25.0002C26.3021 25.3455 26.1649 25.6767 25.9208 25.9209C25.6766 26.1651 25.3454 26.3022 25 26.3022C24.6547 26.3022 24.3235 26.1651 24.0793 25.9209C23.8351 25.6767 23.698 25.3455 23.698 25.0002ZM19.7917 23.6981C19.4464 23.6981 19.1152 23.8353 18.871 24.0795C18.6268 24.3236 18.4896 24.6548 18.4896 25.0002C18.4896 25.3455 18.6268 25.6767 18.871 25.9209C19.1152 26.1651 19.4464 26.3022 19.7917 26.3022C20.137 26.3022 20.4682 26.1651 20.7124 25.9209C20.9566 25.6767 21.0938 25.3455 21.0938 25.0002C21.0938 24.6548 20.9566 24.3236 20.7124 24.0795C20.4682 23.8353 20.137 23.6981 19.7917 23.6981Z" fill="#FFA014"/>
</svg>
