<svg width="50" height="50" viewBox="0 0 50 50" fill="none" xmlns="http://www.w3.org/2000/svg">
<rect width="50" height="50" rx="20" fill="#F0F9F1"/>
<g clip-path="url(#clip0_396_352)">
<path d="M18.75 15.104C20.602 15.104 22.3312 15.478 23.6354 16.129C24.1239 16.3738 24.5989 16.6863 24.9979 17.0634C25.1312 16.9377 25.2704 16.82 25.4156 16.7103L26.2489 16.0832L27.5 17.7498L26.6666 18.3748C26.1531 18.7603 26.0416 19.0832 26.0416 19.2707V32.4478C26.1479 32.3873 26.2555 32.3297 26.3645 32.2748C27.6698 31.6228 29.3989 31.2498 31.25 31.2498C32.3593 31.2498 33.4218 31.3853 34.375 31.6311V21.8748H36.4583V34.6946L34.9916 34.0384C34.0416 33.6134 32.7312 33.3332 31.25 33.3332C29.651 33.3332 28.2541 33.6603 27.2958 34.1384C26.276 34.6488 26.0416 35.1603 26.0416 35.4165H23.9583C23.9583 35.1603 23.7239 34.6488 22.7041 34.1384C21.7458 33.6592 20.35 33.3332 18.75 33.3332C17.2698 33.3332 15.9583 33.6134 15.0083 34.0384L13.5416 34.6946V16.4269C13.7791 16.2446 13.8927 16.1519 14.001 16.0769C14.0656 16.0321 14.1708 15.9665 14.3218 15.8894C14.5239 15.7863 14.8093 15.6644 15.1906 15.5478C15.9531 15.3144 17.0989 15.104 18.75 15.104Z" fill="#7AC47D"/>
<path d="M33.8875 16.1113L37.0521 17.4478L33.8886 18.7832L32.5521 21.9478L31.2157 18.7842L28.0521 17.4478L31.2146 16.1113L32.5521 12.9478L33.8875 16.1113Z" fill="#7AC47D"/>
</g>
<defs>
<clipPath id="clip0_396_352">
<rect width="25" height="25" fill="white" transform="translate(12.5 12.5)"/>
</clipPath>
</defs>
</svg>
