<svg width="246" height="90" viewBox="0 0 246 90" fill="none" xmlns="http://www.w3.org/2000/svg">
<path d="M73.8256 22.12V9.18C73.8256 8.60667 73.8723 8.12 73.9656 7.72C74.0723 7.32 74.2456 6.99333 74.4856 6.74C74.7256 6.48667 75.0456 6.30667 75.4456 6.2C75.8456 6.08 76.3456 6.02 76.9456 6.02H83.6056C83.8989 6.02 84.1456 6.07333 84.3456 6.18C84.5456 6.28667 84.7123 6.42667 84.8456 6.6C84.9789 6.77333 85.0723 6.96667 85.1256 7.18C85.1923 7.39333 85.2256 7.6 85.2256 7.8C85.2256 8 85.1923 8.20667 85.1256 8.42C85.0723 8.62 84.9789 8.80667 84.8456 8.98C84.7256 9.14 84.5589 9.27333 84.3456 9.38C84.1456 9.47333 83.8989 9.52 83.6056 9.52H78.5256C78.2989 9.52 78.1456 9.56 78.0656 9.64C77.9856 9.70667 77.9456 9.86 77.9456 10.1V12.62H83.0856C83.3789 12.62 83.6256 12.6733 83.8256 12.78C84.0256 12.8867 84.1923 13.0267 84.3256 13.2C84.4589 13.3733 84.5523 13.5667 84.6056 13.78C84.6723 13.9933 84.7056 14.2 84.7056 14.4C84.7056 14.6 84.6723 14.8067 84.6056 15.02C84.5523 15.22 84.4589 15.4067 84.3256 15.58C84.2056 15.74 84.0389 15.8733 83.8256 15.98C83.6256 16.0733 83.3789 16.12 83.0856 16.12H77.9456V22.12H73.8256ZM86.4567 12.02C86.4567 10.8733 86.6634 9.91333 87.0767 9.14C87.49 8.35333 88.0234 7.72667 88.6767 7.26C89.33 6.78 90.05 6.44 90.8367 6.24C91.6367 6.02667 92.41 5.92 93.1567 5.92C93.89 5.92 94.65 6.02667 95.4367 6.24C96.2367 6.44 96.9634 6.78 97.6167 7.26C98.27 7.72667 98.8034 8.35333 99.2167 9.14C99.6434 9.91333 99.8567 10.8733 99.8567 12.02V16.4C99.8567 17.5467 99.6434 18.5133 99.2167 19.3C98.8034 20.0733 98.27 20.7 97.6167 21.18C96.9634 21.6467 96.2367 21.98 95.4367 22.18C94.65 22.3933 93.89 22.5 93.1567 22.5C92.4234 22.5 91.6567 22.3933 90.8567 22.18C90.07 21.98 89.35 21.6467 88.6967 21.18C88.0434 20.7 87.5034 20.0733 87.0767 19.3C86.6634 18.5133 86.4567 17.5467 86.4567 16.4V12.02ZM95.7767 11.9C95.7767 11.46 95.6967 11.08 95.5367 10.76C95.39 10.44 95.19 10.1733 94.9367 9.96C94.6834 9.74667 94.4034 9.59333 94.0967 9.5C93.79 9.39333 93.4767 9.34 93.1567 9.34C92.8367 9.34 92.5234 9.39333 92.2167 9.5C91.91 9.59333 91.63 9.74667 91.3767 9.96C91.1234 10.1733 90.9167 10.44 90.7567 10.76C90.61 11.08 90.5367 11.46 90.5367 11.9V16.52C90.5367 16.92 90.6167 17.28 90.7767 17.6C90.95 17.92 91.1634 18.1933 91.4167 18.42C91.67 18.6333 91.95 18.8 92.2567 18.92C92.5767 19.0267 92.8767 19.08 93.1567 19.08C93.4367 19.08 93.73 19.0267 94.0367 18.92C94.3567 18.8 94.6434 18.6333 94.8967 18.42C95.15 18.1933 95.3567 17.92 95.5167 17.6C95.69 17.28 95.7767 16.92 95.7767 16.52V11.9ZM114.575 11.48C114.575 12.44 114.348 13.28 113.895 14C113.455 14.7067 112.875 15.2867 112.155 15.74L115.955 22.12H111.435L108.435 16.74H105.875V22.12H101.775V9.18C101.775 8.60667 101.821 8.12 101.915 7.72C102.021 7.32 102.195 6.99333 102.435 6.74C102.675 6.48667 102.995 6.30667 103.395 6.2C103.795 6.08 104.295 6.02 104.895 6.02H108.575C109.441 6.02 110.241 6.12667 110.975 6.34C111.708 6.54 112.341 6.86 112.875 7.3C113.408 7.72667 113.821 8.26667 114.115 8.92C114.421 9.57333 114.575 10.3467 114.575 11.24V11.48ZM105.875 13.36H108.475C109.155 13.36 109.661 13.1733 109.995 12.8C110.341 12.4267 110.515 11.9867 110.515 11.48V11.34C110.515 10.8333 110.341 10.3933 109.995 10.02C109.661 9.64667 109.155 9.46 108.475 9.46H106.455C106.228 9.46 106.075 9.5 105.995 9.58C105.915 9.64667 105.875 9.8 105.875 10.04V13.36ZM120.336 22.12V9.56H117.276C116.982 9.56 116.729 9.50667 116.516 9.4C116.316 9.29333 116.149 9.15333 116.016 8.98C115.896 8.80667 115.802 8.61333 115.736 8.4C115.682 8.18667 115.656 7.98 115.656 7.78C115.656 7.58 115.682 7.38 115.736 7.18C115.802 6.96667 115.896 6.78 116.016 6.62C116.149 6.44667 116.316 6.31333 116.516 6.22C116.729 6.11333 116.982 6.06 117.276 6.06H127.556C127.849 6.06 128.096 6.11333 128.296 6.22C128.509 6.31333 128.676 6.44667 128.796 6.62C128.929 6.78 129.022 6.96667 129.076 7.18C129.142 7.38 129.176 7.58 129.176 7.78C129.176 7.98 129.142 8.18667 129.076 8.4C129.022 8.61333 128.929 8.80667 128.796 8.98C128.662 9.15333 128.496 9.29333 128.296 9.4C128.096 9.50667 127.849 9.56 127.556 9.56H124.496V22.12H120.336ZM138.931 7.92C138.931 7.58667 138.985 7.29333 139.091 7.04C139.211 6.78667 139.365 6.58 139.551 6.42C139.738 6.26 139.951 6.14 140.191 6.06C140.445 5.98 140.711 5.94 140.991 5.94C141.551 5.94 142.031 6.1 142.431 6.42C142.845 6.74 143.051 7.24 143.051 7.92V16.58C143.051 17.7 142.851 18.6333 142.451 19.38C142.051 20.1267 141.538 20.7333 140.911 21.2C140.285 21.6533 139.591 21.9733 138.831 22.16C138.071 22.36 137.331 22.46 136.611 22.46C135.891 22.46 135.151 22.36 134.391 22.16C133.631 21.9733 132.938 21.6533 132.311 21.2C131.685 20.7333 131.171 20.1267 130.771 19.38C130.371 18.6333 130.171 17.7 130.171 16.58V7.92C130.171 7.58667 130.225 7.29333 130.331 7.04C130.451 6.78667 130.605 6.58 130.791 6.42C130.978 6.26 131.191 6.14 131.431 6.06C131.685 5.98 131.951 5.94 132.231 5.94C132.791 5.94 133.271 6.1 133.671 6.42C134.085 6.74 134.291 7.24 134.291 7.92V16.74C134.291 17.1133 134.358 17.44 134.491 17.72C134.638 18 134.825 18.2333 135.051 18.42C135.278 18.6067 135.525 18.7467 135.791 18.84C136.071 18.9333 136.345 18.98 136.611 18.98C136.878 18.98 137.145 18.9333 137.411 18.84C137.691 18.7467 137.945 18.6067 138.171 18.42C138.398 18.2333 138.578 18 138.711 17.72C138.858 17.44 138.931 17.1133 138.931 16.74V7.92ZM154.594 15.82V7.84C154.594 7.22667 154.774 6.76 155.134 6.44C155.508 6.10667 155.934 5.94 156.414 5.94C156.894 5.94 157.314 6.10667 157.674 6.44C158.048 6.76 158.234 7.22667 158.234 7.84V20.44C158.234 20.7467 158.174 21.0133 158.054 21.24C157.934 21.4667 157.781 21.66 157.594 21.82C157.408 21.98 157.194 22.1067 156.954 22.2C156.728 22.2933 156.501 22.3467 156.274 22.36C155.794 22.4 155.301 22.32 154.794 22.12C154.288 21.9333 153.908 21.6267 153.654 21.2L148.774 12.56V22.12H145.134V7.98C145.134 7.67333 145.194 7.4 145.314 7.16C145.434 6.92 145.588 6.72 145.774 6.56C145.974 6.38667 146.194 6.25333 146.434 6.16C146.674 6.06667 146.908 6.00667 147.134 5.98C147.614 5.92667 148.101 6 148.594 6.2C149.088 6.4 149.461 6.71333 149.714 7.14L154.594 15.82ZM164.488 12.24H169.948C170.241 12.24 170.488 12.2933 170.688 12.4C170.888 12.5067 171.055 12.6467 171.188 12.82C171.321 12.9933 171.415 13.1867 171.468 13.4C171.535 13.6 171.568 13.8 171.568 14C171.568 14.2 171.535 14.4 171.468 14.6C171.415 14.8 171.321 14.9867 171.188 15.16C171.068 15.32 170.901 15.4533 170.688 15.56C170.488 15.6533 170.241 15.7 169.948 15.7H164.488V18.04C164.488 18.28 164.528 18.44 164.608 18.52C164.688 18.5867 164.841 18.62 165.068 18.62H170.328C170.621 18.62 170.868 18.6733 171.068 18.78C171.281 18.8733 171.448 19.0067 171.568 19.18C171.701 19.34 171.795 19.5267 171.848 19.74C171.915 19.94 171.948 20.14 171.948 20.34C171.948 20.54 171.915 20.7467 171.848 20.96C171.795 21.1733 171.701 21.3667 171.568 21.54C171.435 21.7133 171.268 21.8533 171.068 21.96C170.868 22.0667 170.621 22.12 170.328 22.12H163.508C162.908 22.12 162.408 22.0667 162.008 21.96C161.608 21.84 161.288 21.6533 161.048 21.4C160.808 21.1467 160.635 20.82 160.528 20.42C160.435 20.02 160.388 19.5333 160.388 18.96V9.18C160.388 8.60667 160.435 8.12 160.528 7.72C160.635 7.32 160.808 6.99333 161.048 6.74C161.288 6.48667 161.608 6.30667 162.008 6.2C162.408 6.08 162.908 6.02 163.508 6.02H170.128C170.421 6.02 170.668 6.07333 170.868 6.18C171.068 6.28667 171.235 6.42667 171.368 6.6C171.501 6.77333 171.595 6.96667 171.648 7.18C171.715 7.39333 171.748 7.6 171.748 7.8C171.748 8 171.715 8.20667 171.648 8.42C171.595 8.62 171.501 8.80667 171.368 8.98C171.248 9.14 171.081 9.27333 170.868 9.38C170.668 9.47333 170.421 9.52 170.128 9.52H165.068C164.841 9.52 164.688 9.56 164.608 9.64C164.528 9.70667 164.488 9.86 164.488 10.1V12.24Z" fill="white"/>
<g filter="url(#filter0_d_308_3884)">
<path d="M25.2638 78.56C24.8158 78.56 24.3198 78.512 23.7758 78.416C23.2318 78.32 22.7038 78.176 22.1918 77.984C21.6798 77.792 21.2318 77.552 20.8478 77.264C20.4958 76.976 20.2558 76.624 20.1278 76.208L15.2798 58.688L13.0718 80.288H3.99982L8.03182 46.352C8.09582 45.616 8.28782 44.96 8.60782 44.384C8.95982 43.808 9.37582 43.328 9.85582 42.944C10.3358 42.528 10.8478 42.208 11.3918 41.984C11.9678 41.76 12.5278 41.616 13.0718 41.552C13.6478 41.52 14.2558 41.552 14.8958 41.648C15.5678 41.744 16.1918 41.952 16.7678 42.272C17.3758 42.56 17.9198 42.976 18.3998 43.52C18.8798 44.032 19.2318 44.688 19.4558 45.488L25.2638 67.472L31.0718 45.488C31.2958 44.688 31.6318 44.032 32.0798 43.52C32.5598 42.976 33.1038 42.56 33.7118 42.272C34.3198 41.952 34.9438 41.744 35.5838 41.648C36.2558 41.552 36.8798 41.52 37.4558 41.552C37.9998 41.616 38.5438 41.76 39.0878 41.984C39.6638 42.208 40.1918 42.528 40.6718 42.944C41.1518 43.328 41.5518 43.808 41.8718 44.384C42.2238 44.96 42.4318 45.616 42.4958 46.352L46.5278 80.288H37.4558L35.2958 58.544L30.3998 76.208C30.2718 76.624 30.0158 76.976 29.6318 77.264C29.2798 77.552 28.8478 77.792 28.3358 77.984C27.8238 78.176 27.2958 78.32 26.7518 78.416C26.2078 78.512 25.7118 78.56 25.2638 78.56ZM60.6424 56.576H73.7464C74.4504 56.576 75.0424 56.704 75.5224 56.96C76.0025 57.216 76.4025 57.552 76.7225 57.968C77.0425 58.384 77.2665 58.848 77.3945 59.36C77.5545 59.84 77.6345 60.32 77.6345 60.8C77.6345 61.28 77.5545 61.76 77.3945 62.24C77.2665 62.72 77.0425 63.168 76.7225 63.584C76.4345 63.968 76.0345 64.288 75.5224 64.544C75.0424 64.768 74.4504 64.88 73.7464 64.88H60.6424V70.496C60.6424 71.072 60.7384 71.456 60.9304 71.648C61.1225 71.808 61.4905 71.888 62.0345 71.888H74.6584C75.3624 71.888 75.9544 72.016 76.4344 72.272C76.9465 72.496 77.3465 72.816 77.6345 73.232C77.9545 73.616 78.1785 74.064 78.3065 74.576C78.4665 75.056 78.5465 75.536 78.5465 76.016C78.5465 76.496 78.4665 76.992 78.3065 77.504C78.1785 78.016 77.9545 78.48 77.6345 78.896C77.3145 79.312 76.9145 79.648 76.4344 79.904C75.9544 80.16 75.3624 80.288 74.6584 80.288H58.2904C56.8504 80.288 55.6504 80.16 54.6904 79.904C53.7304 79.616 52.9624 79.168 52.3864 78.56C51.8104 77.952 51.3944 77.168 51.1384 76.208C50.9144 75.248 50.8024 74.08 50.8024 72.704V49.232C50.8024 47.856 50.9144 46.688 51.1384 45.728C51.3944 44.768 51.8104 43.984 52.3864 43.376C52.9624 42.768 53.7304 42.336 54.6904 42.08C55.6504 41.792 56.8504 41.648 58.2904 41.648H74.1784C74.8825 41.648 75.4745 41.776 75.9544 42.032C76.4345 42.288 76.8345 42.624 77.1545 43.04C77.4745 43.456 77.6985 43.92 77.8265 44.432C77.9865 44.944 78.0665 45.44 78.0665 45.92C78.0665 46.4 77.9865 46.896 77.8265 47.408C77.6985 47.888 77.4745 48.336 77.1545 48.752C76.8665 49.136 76.4665 49.456 75.9544 49.712C75.4745 49.936 74.8825 50.048 74.1784 50.048H62.0345C61.4905 50.048 61.1225 50.144 60.9304 50.336C60.7384 50.496 60.6424 50.864 60.6424 51.44V56.576ZM91.9917 52.88C91.9597 53.776 92.4717 54.544 93.5277 55.184C94.5837 55.824 96.0717 56.464 97.9917 57.104L100.344 57.92C101.752 58.432 103.016 59.072 104.136 59.84C105.288 60.608 106.264 61.52 107.064 62.576C107.864 63.6 108.456 64.768 108.84 66.08C109.224 67.36 109.368 68.768 109.272 70.304C109.048 73.728 107.656 76.384 105.096 78.272C102.568 80.16 99.1117 81.104 94.7277 81.104C92.5837 81.104 90.5197 80.864 88.5357 80.384C86.5517 79.936 84.9037 79.2 83.5917 78.176C83.1437 77.792 82.7597 77.36 82.4397 76.88C82.1197 76.368 81.8797 75.84 81.7197 75.296C81.5917 74.752 81.5757 74.192 81.6717 73.616C81.7677 73.008 81.9917 72.432 82.3437 71.888C82.6957 71.344 83.1917 70.928 83.8317 70.64C84.4717 70.352 85.1117 70.192 85.7517 70.16C86.5837 70.128 87.2397 70.256 87.7197 70.544C88.2317 70.832 88.7117 71.104 89.1597 71.36C89.7037 71.712 90.4077 72.016 91.2717 72.272C92.1357 72.496 93.3837 72.608 95.0157 72.608C96.3597 72.608 97.3997 72.368 98.1357 71.888C98.8717 71.408 99.2557 70.64 99.2877 69.584C99.2877 69.136 99.1117 68.704 98.7597 68.288C98.4077 67.872 97.8957 67.488 97.2237 67.136C96.5837 66.784 95.8317 66.448 94.9677 66.128C94.1037 65.776 93.1757 65.44 92.1837 65.12C91.7997 64.992 91.3837 64.848 90.9357 64.688C90.5197 64.528 90.1677 64.384 89.8797 64.256C88.0557 63.488 86.5837 62.544 85.4637 61.424C84.3437 60.272 83.4957 59.04 82.9197 57.728C82.3757 56.384 82.0877 55.008 82.0557 53.6C82.0557 52.192 82.2637 50.864 82.6797 49.616C83.5117 47.024 85.0477 45.024 87.2877 43.616C89.5597 42.208 92.3437 41.504 95.6397 41.504C96.8877 41.504 97.9757 41.568 98.9037 41.696C99.8637 41.792 100.696 41.936 101.4 42.128C102.136 42.288 102.76 42.496 103.272 42.752C103.816 42.976 104.312 43.2 104.76 43.424C105.88 44.032 106.744 44.88 107.352 45.968C107.992 47.056 108.136 48.176 107.784 49.328C107.464 50.32 106.92 51.024 106.152 51.44C105.416 51.856 104.584 52.064 103.656 52.064C103.304 52.064 102.904 52 102.456 51.872C102.008 51.744 101.672 51.6 101.448 51.44C100.872 51.056 100.136 50.72 99.2397 50.432C98.3437 50.144 97.1757 50 95.7357 50C94.5837 50 93.6717 50.24 92.9997 50.72C92.3597 51.168 92.0237 51.888 91.9917 52.88ZM122.367 52.88C122.335 53.776 122.847 54.544 123.903 55.184C124.959 55.824 126.447 56.464 128.367 57.104L130.719 57.92C132.127 58.432 133.391 59.072 134.511 59.84C135.663 60.608 136.639 61.52 137.439 62.576C138.239 63.6 138.831 64.768 139.215 66.08C139.599 67.36 139.743 68.768 139.647 70.304C139.423 73.728 138.031 76.384 135.471 78.272C132.943 80.16 129.487 81.104 125.103 81.104C122.959 81.104 120.895 80.864 118.911 80.384C116.927 79.936 115.279 79.2 113.967 78.176C113.519 77.792 113.135 77.36 112.815 76.88C112.495 76.368 112.255 75.84 112.095 75.296C111.967 74.752 111.951 74.192 112.047 73.616C112.143 73.008 112.367 72.432 112.719 71.888C113.071 71.344 113.567 70.928 114.207 70.64C114.847 70.352 115.487 70.192 116.127 70.16C116.959 70.128 117.615 70.256 118.095 70.544C118.607 70.832 119.087 71.104 119.535 71.36C120.079 71.712 120.783 72.016 121.647 72.272C122.511 72.496 123.759 72.608 125.391 72.608C126.735 72.608 127.775 72.368 128.511 71.888C129.247 71.408 129.631 70.64 129.663 69.584C129.663 69.136 129.487 68.704 129.135 68.288C128.783 67.872 128.271 67.488 127.599 67.136C126.959 66.784 126.207 66.448 125.343 66.128C124.479 65.776 123.551 65.44 122.559 65.12C122.175 64.992 121.759 64.848 121.311 64.688C120.895 64.528 120.543 64.384 120.255 64.256C118.431 63.488 116.959 62.544 115.839 61.424C114.719 60.272 113.871 59.04 113.295 57.728C112.751 56.384 112.463 55.008 112.431 53.6C112.431 52.192 112.639 50.864 113.055 49.616C113.887 47.024 115.423 45.024 117.663 43.616C119.935 42.208 122.719 41.504 126.015 41.504C127.263 41.504 128.351 41.568 129.279 41.696C130.239 41.792 131.071 41.936 131.775 42.128C132.511 42.288 133.135 42.496 133.647 42.752C134.191 42.976 134.687 43.2 135.135 43.424C136.255 44.032 137.119 44.88 137.727 45.968C138.367 47.056 138.511 48.176 138.159 49.328C137.839 50.32 137.295 51.024 136.527 51.44C135.791 51.856 134.959 52.064 134.031 52.064C133.679 52.064 133.279 52 132.831 51.872C132.383 51.744 132.047 51.6 131.823 51.44C131.247 51.056 130.511 50.72 129.615 50.432C128.719 50.144 127.551 50 126.111 50C124.959 50 124.047 50.24 123.375 50.72C122.735 51.168 122.399 51.888 122.367 52.88ZM153.078 45.44C153.558 44.096 154.374 43.104 155.526 42.464C156.71 41.792 157.958 41.456 159.27 41.456C160.486 41.456 161.654 41.792 162.774 42.464C163.926 43.136 164.726 44.128 165.174 45.44L177.702 80.288H167.142L165.27 74.336H152.934L151.11 80.288H140.742L153.078 45.44ZM155.43 66.224H162.774L159.126 54.272L155.43 66.224ZM209.97 67.472C209.97 69.904 209.57 71.984 208.77 73.712C207.97 75.44 206.882 76.848 205.506 77.936C204.13 79.024 202.53 79.824 200.706 80.336C198.882 80.848 196.946 81.104 194.898 81.104C192.818 81.104 190.77 80.832 188.754 80.288C186.77 79.776 184.994 78.944 183.426 77.792C181.89 76.608 180.642 75.088 179.682 73.232C178.722 71.376 178.242 69.136 178.242 66.512V56.048C178.242 53.392 178.722 51.136 179.682 49.28C180.642 47.424 181.906 45.92 183.474 44.768C185.042 43.616 186.834 42.784 188.85 42.272C190.866 41.728 192.93 41.456 195.042 41.456C197.25 41.456 199.266 41.68 201.09 42.128C202.914 42.576 204.29 43.136 205.218 43.808C206.21 44.512 206.898 45.392 207.282 46.448C207.666 47.472 207.57 48.496 206.994 49.52C206.514 50.352 205.874 50.944 205.074 51.296C204.274 51.648 203.458 51.744 202.626 51.584C202.082 51.488 201.586 51.344 201.138 51.152C200.722 50.928 200.338 50.736 199.986 50.576C198.866 50.16 197.218 49.952 195.042 49.952C194.21 49.952 193.378 50.096 192.546 50.384C191.714 50.64 190.962 51.04 190.29 51.584C189.618 52.096 189.074 52.768 188.658 53.6C188.242 54.432 188.034 55.392 188.034 56.48V66.08C188.034 67.2 188.226 68.176 188.61 69.008C188.994 69.808 189.506 70.48 190.146 71.024C190.818 71.536 191.554 71.936 192.354 72.224C193.186 72.48 194.034 72.608 194.898 72.608C195.698 72.608 196.482 72.512 197.25 72.32C198.018 72.096 198.69 71.792 199.266 71.408C199.842 70.992 200.306 70.48 200.658 69.872C201.01 69.232 201.186 68.48 201.186 67.616V67.04C201.186 66.56 201.106 66.256 200.946 66.128C200.818 66 200.53 65.936 200.082 65.936H198.498C197.794 65.936 197.202 65.824 196.722 65.6C196.242 65.344 195.842 65.024 195.522 64.64C195.234 64.256 195.01 63.824 194.85 63.344C194.722 62.864 194.658 62.384 194.658 61.904C194.658 61.424 194.722 60.944 194.85 60.464C195.01 59.952 195.234 59.504 195.522 59.12C195.842 58.704 196.242 58.368 196.722 58.112C197.234 57.856 197.826 57.728 198.498 57.728H202.866C204.274 57.728 205.442 57.856 206.37 58.112C207.298 58.336 208.018 58.736 208.53 59.312C209.074 59.856 209.442 60.592 209.634 61.52C209.858 62.416 209.97 63.536 209.97 64.88V67.472ZM223.627 56.576H236.731C237.435 56.576 238.027 56.704 238.507 56.96C238.987 57.216 239.387 57.552 239.707 57.968C240.027 58.384 240.251 58.848 240.379 59.36C240.539 59.84 240.619 60.32 240.619 60.8C240.619 61.28 240.539 61.76 240.379 62.24C240.251 62.72 240.027 63.168 239.707 63.584C239.419 63.968 239.019 64.288 238.507 64.544C238.027 64.768 237.435 64.88 236.731 64.88H223.627V70.496C223.627 71.072 223.723 71.456 223.915 71.648C224.107 71.808 224.475 71.888 225.019 71.888H237.643C238.347 71.888 238.939 72.016 239.419 72.272C239.931 72.496 240.331 72.816 240.619 73.232C240.939 73.616 241.163 74.064 241.291 74.576C241.451 75.056 241.531 75.536 241.531 76.016C241.531 76.496 241.451 76.992 241.291 77.504C241.163 78.016 240.939 78.48 240.619 78.896C240.299 79.312 239.899 79.648 239.419 79.904C238.939 80.16 238.347 80.288 237.643 80.288H221.275C219.835 80.288 218.635 80.16 217.675 79.904C216.715 79.616 215.947 79.168 215.371 78.56C214.795 77.952 214.379 77.168 214.123 76.208C213.899 75.248 213.787 74.08 213.787 72.704V49.232C213.787 47.856 213.899 46.688 214.123 45.728C214.379 44.768 214.795 43.984 215.371 43.376C215.947 42.768 216.715 42.336 217.675 42.08C218.635 41.792 219.835 41.648 221.275 41.648H237.163C237.867 41.648 238.459 41.776 238.939 42.032C239.419 42.288 239.819 42.624 240.139 43.04C240.459 43.456 240.683 43.92 240.811 44.432C240.971 44.944 241.051 45.44 241.051 45.92C241.051 46.4 240.971 46.896 240.811 47.408C240.683 47.888 240.459 48.336 240.139 48.752C239.851 49.136 239.451 49.456 238.939 49.712C238.459 49.936 237.867 50.048 237.163 50.048H225.019C224.475 50.048 224.107 50.144 223.915 50.336C223.723 50.496 223.627 50.864 223.627 51.44V56.576Z" fill="white"/>
</g>
<defs>
<filter id="filter0_d_308_3884" x="0" y="41.4561" width="245.531" height="47.6479" filterUnits="userSpaceOnUse" color-interpolation-filters="sRGB">
<feFlood flood-opacity="0" result="BackgroundImageFix"/>
<feColorMatrix in="SourceAlpha" type="matrix" values="0 0 0 0 0 0 0 0 0 0 0 0 0 0 0 0 0 0 127 0" result="hardAlpha"/>
<feOffset dy="4"/>
<feGaussianBlur stdDeviation="2"/>
<feComposite in2="hardAlpha" operator="out"/>
<feColorMatrix type="matrix" values="0 0 0 0 0 0 0 0 0 0 0 0 0 0 0 0 0 0 0.25 0"/>
<feBlend mode="normal" in2="BackgroundImageFix" result="effect1_dropShadow_308_3884"/>
<feBlend mode="normal" in="SourceGraphic" in2="effect1_dropShadow_308_3884" result="shape"/>
</filter>
</defs>
</svg>
