<svg width="50" height="50" viewBox="0 0 50 50" fill="none" xmlns="http://www.w3.org/2000/svg">
<rect width="50" height="50" rx="20" fill="#E9F5FE"/>
<path d="M21.5259 28.8906C21.7811 29.0708 22.0853 29.1666 22.3968 29.1656V29.1614C22.6908 29.1622 22.9787 29.0765 23.2244 28.915C23.4702 28.7535 23.6631 28.5233 23.7791 28.2531L24.4176 26.3114C24.565 25.8715 24.8127 25.472 25.1413 25.1444C25.4698 24.8168 25.87 24.5701 26.3103 24.4239L28.1624 23.8218C28.4613 23.7175 28.7195 23.5215 28.9003 23.2617C29.0812 23.0019 29.1753 22.6916 29.1693 22.3751C29.1633 22.0587 29.0574 21.7522 28.8669 21.4994C28.6764 21.2467 28.4108 21.0606 28.1082 20.9677L26.2801 20.3739C25.838 20.2266 25.4363 19.9782 25.1069 19.6486C24.7774 19.319 24.5293 18.9172 24.3822 18.475L23.7801 16.6239C23.6751 16.3291 23.4809 16.0743 23.2244 15.895C22.9679 15.7156 22.662 15.6206 22.349 15.6231C22.0361 15.6256 21.7317 15.7256 21.4782 15.909C21.2246 16.0925 21.0345 16.3504 20.9343 16.6468L20.327 18.5135C20.1803 18.9428 19.9382 19.3333 19.6189 19.6556C19.2995 19.9778 18.9112 20.2234 18.4832 20.3739L16.6322 20.9677C16.3351 21.0705 16.0777 21.2638 15.8961 21.5204C15.7145 21.7771 15.6179 22.0841 15.6199 22.3985C15.6219 22.7129 15.7223 23.0187 15.907 23.2731C16.0917 23.5275 16.3515 23.7175 16.6499 23.8166L18.477 24.4093C18.919 24.5577 19.3206 24.8068 19.6499 25.1369C19.9793 25.467 20.2275 25.869 20.3749 26.3114L20.977 28.1604C21.0801 28.4552 21.2718 28.7104 21.5259 28.8906ZM29.5124 34.1468C29.3136 34.0052 29.1642 33.8049 29.0853 33.5739L28.7436 32.526C28.6774 32.3265 28.5656 32.1452 28.4172 31.9964C28.2688 31.8476 28.0877 31.7354 27.8884 31.6687L26.8561 31.3323C26.62 31.2523 26.4147 31.1006 26.2689 30.8984C26.123 30.6961 26.0439 30.4535 26.0426 30.2041C26.0423 29.9563 26.1196 29.7145 26.2636 29.5127C26.4076 29.311 26.6112 29.1594 26.8457 29.0791L27.8936 28.7396C28.0886 28.6703 28.265 28.5573 28.4095 28.4092C28.5539 28.2611 28.6625 28.082 28.727 27.8854L29.0645 26.8531C29.1439 26.6195 29.2939 26.4164 29.4937 26.2717C29.6936 26.1271 29.9335 26.0481 30.1802 26.0457C30.4269 26.0433 30.6682 26.1176 30.8708 26.2583C31.0735 26.399 31.2274 26.5992 31.3114 26.8312L31.6541 27.8875C31.7212 28.0855 31.8332 28.2652 31.9814 28.4127C32.1296 28.5602 32.3099 28.6713 32.5082 28.7375L33.5416 29.0739C33.7798 29.1484 33.9885 29.296 34.1381 29.4958C34.2877 29.6955 34.3707 29.9373 34.3751 30.1869C34.3796 30.4364 34.3055 30.681 34.1631 30.8861C34.0208 31.0911 33.8176 31.2461 33.5822 31.3291L32.5259 31.6718C32.3273 31.7389 32.147 31.8511 31.9991 31.9997C31.8513 32.1483 31.7399 32.3292 31.6739 32.5281L31.3384 33.5583C31.2572 33.7979 31.103 34.0062 30.8957 34.152C30.6935 34.2958 30.4513 34.3726 30.2032 34.3717C29.9551 34.3707 29.7135 34.2921 29.5124 34.1468Z" fill="#2196F3"/>
</svg>
