<svg width="40" height="40" viewBox="0 0 40 40" fill="none" xmlns="http://www.w3.org/2000/svg">
<rect width="40" height="40" rx="20" fill="#F8F8F8"/>
<path d="M13.5285 27.4231C19.2385 27.4231 23.8675 22.7942 23.8675 17.0841C23.8675 11.374 19.2385 6.74512 13.5285 6.74512C7.81838 6.74512 3.18945 11.374 3.18945 17.0841C3.18945 22.7942 7.81838 27.4231 13.5285 27.4231Z" fill="#E3ECFF"/>
<path d="M22.2205 37.256C26.635 37.256 30.2135 33.6774 30.2135 29.263C30.2135 24.8486 26.635 21.27 22.2205 21.27C17.8061 21.27 14.2275 24.8486 14.2275 29.263C14.2275 33.6774 17.8061 37.256 22.2205 37.256Z" fill="#E1E8F7"/>
<path d="M22.9529 21.3031C19.0189 20.9371 15.3989 23.5181 14.4639 27.3641C18.1709 27.0281 21.4299 24.7041 22.9529 21.3031Z" fill="#9DBCF7"/>
<path d="M31.9909 22.2152C34.6535 22.2152 36.8119 20.0568 36.8119 17.3942C36.8119 14.7317 34.6535 12.5732 31.9909 12.5732C29.3284 12.5732 27.1699 14.7317 27.1699 17.3942C27.1699 20.0568 29.3284 22.2152 31.9909 22.2152Z" fill="#ECEFF7"/>
</svg>
