<svg width="40" height="40" viewBox="0 0 40 40" fill="none" xmlns="http://www.w3.org/2000/svg">
<g clip-path="url(#clip0_914_2504)">
<rect width="40" height="40" rx="20" fill="#F8F8F8"/>
<path d="M4.8426 18.719H2.42212V21.1448H4.8426V18.719Z" fill="#FFFED5"/>
<path d="M4.84236 23.7753H2.42188V26.2024H4.84236V23.7753Z" fill="#FFFED5"/>
<path d="M10.2237 18.7189H7.80322V21.1447H10.2237V18.7189Z" fill="#FFFED5"/>
<path d="M10.2237 23.7753H7.80322V26.2024H10.2237V23.7753Z" fill="#FFFED5"/>
<path d="M10.2237 28.8311H7.80322V31.2569H10.2237V28.8311Z" fill="#FFFED5"/>
<path d="M20.1594 26.0123H18.2637V27.9121H20.1594V26.0123Z" fill="#FFFED5"/>
<path d="M20.1594 29.9724H18.2637V31.8735H20.1594V29.9724Z" fill="#FFFED5"/>
<path d="M24.3745 26.0123H22.4788V27.9121H24.3745V26.0123Z" fill="#FFFED5"/>
<path d="M24.3745 29.9724H22.4788V31.8735H24.3745V29.9724Z" fill="#FFFED5"/>
<path d="M14.7315 23.4339V15.4272C14.7315 14.5344 14.2001 13.8091 13.5451 13.8091H-0.670898V29.3695C-0.670898 29.7362 -0.6523 30.0989 -0.616431 30.4562C-0.507496 31.5283 -0.239144 32.5526 0.163385 33.5064C0.567242 34.4603 1.10528 35.3424 1.7549 36.1302C2.40453 36.9179 3.16574 37.6101 4.01331 38.1827C5.70978 39.3291 7.7543 39.9974 9.95559 39.9974H14.7301V23.4326L14.7315 23.4339ZM4.84095 26.2011H2.42047V23.774H4.84095V26.2011ZM4.84095 21.1449H2.42047V18.7191H4.84095V21.1449ZM10.2226 31.256H7.80213V28.8302H10.2226V31.256ZM10.2226 26.2011H7.80213V23.774H10.2226V26.2011ZM10.2226 21.1449H7.80213V18.7191H10.2226V21.1449Z" fill="#DEDEDE"/>
<path d="M36.2264 27.3676C35.7163 27.3676 35.3044 27.9308 35.3044 28.6256V39.6228C35.4134 39.5935 35.5197 39.555 35.6273 39.5218C35.7973 39.47 35.9687 39.4222 36.1347 39.3624C36.1374 39.3624 36.1414 39.3597 36.144 39.3597C36.2171 39.3331 36.2875 39.2999 36.3606 39.272C36.4987 39.2189 36.6369 39.1631 36.7724 39.1046C37.1032 38.9612 37.426 38.8057 37.7382 38.6304C37.7595 38.6184 37.7794 38.6038 37.8007 38.5932C38.4835 38.2039 39.1198 37.7403 39.6964 37.2142C39.7402 37.1744 39.7841 37.1358 39.8266 37.096C39.9887 36.9432 40.1454 36.7838 40.2982 36.6217C40.3606 36.5553 40.4204 36.4889 40.4802 36.4211C40.6184 36.267 40.7525 36.1103 40.8814 35.9482C40.9491 35.8618 41.0129 35.7728 41.0793 35.6838C41.1949 35.5284 41.3118 35.3716 41.4194 35.2096C41.4991 35.09 41.5695 34.9638 41.6426 34.8416C41.7834 34.6078 41.9163 34.3686 42.0385 34.1242C42.1235 33.9555 42.2085 33.7854 42.2856 33.6114C42.3401 33.4865 42.3866 33.3577 42.437 33.2315C42.5061 33.0548 42.5725 32.8781 42.6323 32.6987C42.6748 32.5725 42.712 32.4437 42.7492 32.3135C42.8037 32.1235 42.8529 31.9322 42.898 31.7369C42.9259 31.612 42.9551 31.4872 42.9791 31.361C43.0202 31.1444 43.0521 30.9252 43.0787 30.7047C43.092 30.5958 43.1092 30.4895 43.1199 30.3805C43.1518 30.0484 43.1704 29.7136 43.1704 29.3722V27.3689H36.2277L36.2264 27.3676Z" fill="#DEDEDE"/>
<path d="M26.9755 22.168H15.6609C15.1481 22.168 14.731 22.7352 14.731 23.4353V40.0001H27.9055V23.4353C27.9055 22.7352 27.4897 22.168 26.9755 22.168ZM20.1578 31.8738H18.2621V29.9728H20.1578V31.8738ZM20.1578 27.9136H18.2621V26.0139H20.1578V27.9136ZM24.373 31.8738H22.4773V29.9728H24.373V31.8738ZM24.373 27.9136H22.4773V26.0139H24.373V27.9136Z" fill="#EAEAEA"/>
</g>
<defs>
<clipPath id="clip0_914_2504">
<rect width="40" height="40" rx="20" fill="white"/>
</clipPath>
</defs>
</svg>
