<svg width="40" height="40" viewBox="0 0 40 40" fill="none" xmlns="http://www.w3.org/2000/svg">
<g clip-path="url(#clip0_914_2491)">
<rect width="40" height="40" rx="20" fill="#F8F8F8"/>
<path d="M2.66707 7.33301H6.75041C7.12374 7.33301 7.47374 7.49634 7.68374 7.79967L14.3337 16.6663L12.0004 28.333L19.0004 32.9997L20.9137 36.8263C21.0537 37.1063 20.9837 38.6464 20.7037 38.7864C20.6234 38.8259 19.589 39.9933 19.4998 40L2.66707 37.6663C1.38374 37.6663 0.33374 36.6163 0.33374 35.333V9.66634C0.33374 8.38301 1.38374 7.33301 2.66707 7.33301ZM20.0037 16.7363L25.2537 18.4863C25.6037 18.603 25.8837 18.8597 26.0004 19.2097L27.7737 24.553C27.9837 25.1597 27.6571 25.8363 27.0271 26.023L21.5904 27.843C21.3104 27.9363 20.9837 27.913 20.7037 27.773L17.3204 26.0697C17.0844 25.9537 16.8941 25.7619 16.7799 25.525C16.6657 25.2882 16.6342 25.0199 16.6904 24.763L18.5104 17.553C18.6504 16.923 19.3037 16.5497 19.9104 16.713C19.9571 16.713 19.9804 16.713 20.0037 16.7363ZM23.6671 33.7697V30.993C23.6671 30.5497 23.9237 30.153 24.3204 29.943L27.4704 28.3797C27.9604 28.123 28.5904 28.263 28.9171 28.7063L31.0871 31.623C31.4837 32.1363 31.3671 32.8597 30.8537 33.2563C30.8537 33.2563 30.8304 33.2797 30.8071 33.2797L28.6371 34.7497C28.4271 34.8663 28.2171 34.9363 27.9837 34.9363H24.8337C24.1804 34.9363 23.6671 34.423 23.6671 33.7697Z" fill="#DEDEDE"/>
</g>
<defs>
<clipPath id="clip0_914_2491">
<rect width="40" height="40" rx="20" fill="white"/>
</clipPath>
</defs>
</svg>
