<svg preserveAspectRatio="none" width="100%" height="100%" overflow="visible" style="display: block;" viewBox="0 0 81 28.0001" fill="none" xmlns="http://www.w3.org/2000/svg">
<g id="Frame 2085667059">
<path id="Vector" d="M3.95052 15.0501C4.78349 15.054 5.61651 15.053 6.44948 15.0482C6.47612 16.3338 6.36541 17.7883 6.50462 19.0691C6.57259 19.6938 7.25869 20.4027 7.9299 20.4223C9.13986 20.457 10.3798 20.4433 11.6025 20.4438L18.8358 20.4423L42.4627 20.4453C43.1443 21.1826 43.6357 21.7951 44.4032 22.4702C48.4888 26.0642 54.3085 26.542 58.7912 23.3568C60.0862 22.4369 60.8294 21.6678 61.8692 20.4458C65.0657 20.3983 68.3759 20.4433 71.5812 20.4438C71.5988 19.188 71.5885 17.9058 71.5915 16.6481C72.4278 16.6383 73.2641 16.6383 74.1 16.6486L74.1019 20.4414L79.6557 20.4419L80.9946 20.4472L81 22.9456C76.8081 22.9926 72.5878 22.9245 68.3944 22.9539C66.6257 22.9666 64.8022 22.9221 63.0383 22.9691C62.7138 23.3049 62.3947 23.6364 62.0522 23.9546C55.7689 29.7977 47.0674 29.1769 41.3233 22.9603C38.5644 22.9279 35.7472 22.9549 32.9831 22.9549L16.9776 22.9559L10.6725 22.9539C9.92984 22.9549 8.00773 23.0033 7.37086 22.903C6.53516 22.7664 5.76426 22.3669 5.16946 21.7623C3.8765 20.4531 3.94023 19.2086 3.94316 17.5377L3.95052 15.0501Z" fill="var(--fill-0, white)"/>
<path id="Subtract" fill-rule="evenodd" clip-rule="evenodd" d="M51.3483 0.32137C52.9442 0.339678 54.796 0.0315991 56.1051 1.08699C56.7902 1.63878 57.2268 2.44296 57.3171 3.31942C57.3771 3.94232 57.3493 4.96884 57.3493 5.6241L57.3503 12.7657C57.3498 13.9976 57.4507 15.059 56.5885 16.0743C55.8888 16.8988 55.1298 17.1912 54.0749 17.2911C52.8712 17.3395 51.5124 17.2837 50.2897 17.3028C49.3085 17.3175 48.0648 17.3451 47.1051 17.2247C46.5514 17.1263 46.0306 16.9087 45.5944 16.5636C44.1122 15.3881 44.2995 13.7814 44.2985 12.0684L44.2995 5.41024C44.3 4.68982 44.2542 3.87417 44.3825 3.16805C44.6894 1.47487 45.9381 0.494415 47.6032 0.337971C48.7752 0.266644 50.1636 0.307806 51.3483 0.32137ZM54.1442 2.8702C52.3277 2.77669 50.4417 2.89056 48.6188 2.84676C48.2607 2.83814 47.8842 2.84631 47.526 2.8702C47.3278 2.98558 46.923 3.24759 46.9118 3.50692C46.7649 6.89713 46.8786 10.3272 46.86 13.7257C46.8576 14.155 47.1743 14.7359 47.6217 14.7608C49.4491 14.8626 51.3022 14.7744 53.1344 14.7989C53.4598 14.8033 53.8169 14.8053 54.1383 14.7657C54.8683 14.3613 54.8053 14.07 54.8073 13.2911C54.8102 12.1355 54.8078 10.979 54.8073 9.82332L54.8053 5.8741C54.8058 5.1858 54.8136 4.49781 54.8024 3.80965C54.7945 3.33472 54.5316 3.08978 54.1442 2.8702Z" fill="var(--fill-0, white)"/>
<path id="Vector_2" d="M36.7921 0.0132308C37.5857 -0.0131086 38.5049 0.00985373 39.3083 0.0100006C39.3549 2.17791 39.3175 4.49808 39.3185 6.6773L42.5353 6.67891C42.5411 7.51546 42.5411 8.35205 42.5343 9.18865C41.4623 9.18454 40.3898 9.18698 39.3177 9.19604L39.3117 17.9367L36.7901 17.9318L36.7832 14.1419C34.3547 15.6743 32.0849 15.2508 29.3507 15.2929C27.3645 15.3233 25.0996 15.574 23.7448 13.8071C23.3177 13.245 23.0283 12.5901 22.8999 11.895C22.7683 11.2021 22.7982 8.98528 22.812 8.15662C22.8319 6.95656 22.7286 4.84319 22.875 3.72415C23.1005 2.81593 23.3478 2.19094 24.0093 1.50954C25.4169 0.0598413 27.4285 0.318633 29.2637 0.319906L34.1046 0.325096L34.1044 2.8454C31.8117 2.87918 29.5097 2.82367 27.2173 2.84139C25.9129 2.85148 25.3351 3.58134 25.3286 4.83858C25.3202 6.45939 25.3491 8.08245 25.3283 9.70325C25.2884 11.2996 25.2669 12.7997 27.3445 12.7671C28.5759 12.7621 29.8413 12.7789 31.0691 12.7654C32.8755 12.7456 34.6069 13.0041 36.0234 11.6161C37.0068 10.6524 36.7501 9.45214 36.7899 8.20058C36.8049 7.72823 36.7895 7.2528 36.7892 6.78471L36.7921 0.0132308Z" fill="var(--fill-0, white)"/>
<path id="Subtract_2" fill-rule="evenodd" clip-rule="evenodd" d="M6.03377 0.0234866C9.66417 -0.282035 12.8515 2.4289 13.1461 6.07231C13.4406 9.71572 10.7302 12.906 7.09823 13.1915C3.48043 13.4759 0.315627 10.7697 0.0220552 7.14067C-0.271297 3.51142 2.41752 0.327908 6.03377 0.0234866ZM10.5777 6.04302C10.2708 3.83067 8.23481 2.28671 6.02987 2.59478C3.82531 2.90285 2.28672 4.94534 2.59334 7.15728C2.90021 9.36944 4.93642 10.9132 7.1412 10.6055C9.34604 10.2977 10.8845 8.25528 10.5777 6.04302Z" fill="var(--fill-0, white)"/>
<path id="Vector_3" d="M65.8576 0.324936C68.9126 0.287385 71.9779 0.341434 75.0339 0.317543C75.373 0.314899 75.695 0.31534 76.0317 0.34354C80.1451 0.688058 81.3327 6.15833 77.9449 8.36805C76.7183 9.16666 75.5965 9.04984 74.2034 9.04583L71.2064 9.03702C69.8753 9.03344 67.9611 8.87575 67.866 10.772C67.8377 11.2873 68.0216 11.7916 68.3749 12.1666C68.5881 12.3881 68.9682 12.624 69.2664 12.6423C70.3062 12.706 71.5002 12.6799 72.54 12.6796L80.0319 12.6808C80.049 13.5084 80.0363 14.3769 80.0368 15.2072C76.526 15.2523 72.9704 15.2009 69.4572 15.2053C67.1004 15.2082 65.153 13.0555 65.2979 10.66C65.3506 9.81026 65.637 8.99178 66.1245 8.29516C67.4083 6.49541 69.081 6.52537 71.0103 6.53091L74.0229 6.54251C74.6655 6.54476 75.2544 6.57384 75.8839 6.48283C77.8239 6.20264 77.7659 3.10012 75.9454 2.88182C75.0793 2.77793 73.6618 2.84911 72.7552 2.84921L65.8478 2.84632C65.8259 2.02848 65.8415 1.14346 65.8576 0.324936Z" fill="var(--fill-0, white)"/>
<path id="Vector_4" d="M15.332 0.0106749L17.8464 0.0151303L17.84 6.67695L21.0478 6.67577C21.0584 7.51521 21.0593 8.35479 21.0502 9.19427C19.9775 9.18096 18.9047 9.18257 17.8321 9.19912C17.843 10.3431 17.8472 11.4871 17.8446 12.6311L17.8467 15.8873L15.3214 15.8868L15.332 0.0106749Z" fill="var(--fill-0, white)"/>
<path id="Vector_5" d="M60.015 0.0156241C60.8016 -0.0132611 61.737 0.0112678 62.5353 0.0111209C62.5767 2.08312 62.5353 4.29289 62.5348 6.37699L62.5338 17.9332C61.6984 17.9244 60.8504 17.9327 60.0141 17.9332L60.015 0.0156241Z" fill="var(--fill-0, white)"/>
</g>
</svg>
